<?xml version="1.0" encoding="utf-8"?>
<!-- Generator: Adobe Illustrator 16.0.0, SVG Export Plug-In . SVG Version: 6.00 Build 0)  -->
<!DOCTYPE svg PUBLIC "-//W3C//DTD SVG 1.1//EN" "http://www.w3.org/Graphics/SVG/1.1/DTD/svg11.dtd">
<svg version="1.1" id="Layer_1" xmlns="http://www.w3.org/2000/svg" xmlns:xlink="http://www.w3.org/1999/xlink" x="0px" y="0px"
	 width="48px" height="48px" viewBox="0 0 48 48" enable-background="new 0 0 48 48" xml:space="preserve">
<path fill="#010101" d="M45.289,17.132h-2.814c-0.666-1.541-1.619-2.966-2.813-4.238c0.923-1.495,2.361-2.422,2.771-3.41
	c0.437-1.055-3.363-1.385-6.268,0.549c-3.182-1.999-7.151-3.199-11.472-3.199c-9.653,0-17.6,5.931-18.729,13.579
	c-2.561-0.336-4.533-4.756-4.814-4.99c-0.343-0.287-0.563,6.272,4.623,9.998c0.187,0.134,0.365,0.244,0.539,0.34
	c0.764,2.711,2.397,5.145,4.65,7.101v4.871c0,1.887,1.933,3.433,4.291,3.433s4.292-1.546,4.292-3.433v-0.601
	c1.639,0.38,3.361,0.597,5.149,0.597c1.787,0,3.509-0.217,5.148-0.597v0.597c0,1.888,1.934,3.434,4.293,3.434
	c2.357,0,4.289-1.546,4.281-4.274v-4.019c1.783-1.547,3.175-3.392,4.061-5.438h2.814c0.943,0,1.715-0.773,1.715-1.717v-6.866
	C47.004,17.904,46.232,17.132,45.289,17.132z M28.996,31.55c-0.783,0.771-1.924,1.249-3.424,1.434v2.128H23.29v-2.062
	c-1.609-0.073-3.161-0.434-4.652-1.08v-3.66c0.853,0.434,1.778,0.795,2.778,1.086c1,0.29,1.878,0.436,2.635,0.436
	c0.625,0,1.082-0.075,1.373-0.227c0.29-0.15,0.436-0.402,0.436-0.755c0-0.243-0.105-0.448-0.314-0.617
	c-0.209-0.17-0.559-0.36-1.047-0.574c-0.489-0.213-1.148-0.47-1.979-0.771c-0.934-0.346-1.687-0.733-2.26-1.163
	s-0.991-0.911-1.251-1.444c-0.261-0.533-0.392-1.196-0.392-1.99c0-1.212,0.39-2.161,1.169-2.844
	c0.779-0.684,1.948-1.106,3.506-1.268v-1.51h2.282v1.488c1.463,0.081,2.937,0.441,4.422,1.081l-1.312,3.142
	c-1.536-0.691-2.922-1.036-4.157-1.036c-0.588,0-1.001,0.071-1.24,0.215c-0.239,0.143-0.358,0.354-0.358,0.634
	c0,0.243,0.086,0.443,0.259,0.601c0.172,0.158,0.472,0.334,0.898,0.529s1.018,0.421,1.775,0.678
	c1.536,0.544,2.639,1.163,3.308,1.858c0.669,0.694,1.003,1.589,1.003,2.685C30.17,29.774,29.778,30.778,28.996,31.55z
	 M31.557,15.416c0,0-4.318-1.716-7.75-1.716c-3.433,0-7.697,1.716-7.697,1.716v-3.433c0,0,4.264-1.716,7.697-1.716
	c3.432,0,7.75,1.716,7.75,1.716V15.416z"/>
</svg>
